<svg width="141" height="48" viewBox="0 0 141 48" fill="none" xmlns="http://www.w3.org/2000/svg">
<path d="M0.691015 0.691015H47.1956V47.309H0.691015V0.691015Z" stroke="#29EDFF" stroke-width="1.38203"/>
<path d="M11.5376 8.7413H9.64684V10.0951H11.4604V10.5592H9.64684V12.3771H11.499V12.8412H9.1452V8.27716H11.499V8.7413H11.5376Z" fill="#29EDFF"/>
<path d="M18.7148 8.27716V12.3771H19.9881V12.8412H18.2131V8.27716H18.7148Z" fill="#29EDFF"/>
<path d="M27.667 8.27716C27.9371 8.27716 28.3616 8.31584 28.7089 8.54791C28.8632 8.66395 29.1333 8.9347 29.1333 9.47619C29.1333 9.70827 29.0947 10.0951 28.6703 10.3658C29.2877 10.5205 29.5578 11.062 29.5578 11.5262C29.5578 11.9903 29.3263 12.3384 29.0947 12.5318C28.7474 12.8025 28.323 12.8412 28.0143 12.8412H26.8953V8.27716H27.667ZM27.3583 10.2884H27.7442C28.0143 10.2884 28.6317 10.2498 28.6317 9.51487C28.6317 8.77998 27.8985 8.7413 27.7442 8.7413H27.3583V10.2884ZM27.3583 12.3771H27.9371C28.2458 12.3771 28.5159 12.3384 28.7474 12.1837C28.9404 12.0677 29.0561 11.8356 29.0561 11.5648C29.0561 11.2167 28.8632 10.9847 28.6703 10.9073C28.5159 10.8299 28.2458 10.7526 27.8985 10.7526H27.3969V12.3771H27.3583Z" fill="#29EDFF"/>
<path d="M36.4262 8.27716C36.7349 8.27716 37.1979 8.31584 37.5452 8.54791C37.8153 8.7413 38.0469 9.08941 38.0469 9.55355C38.0469 10.2498 37.5838 10.7526 36.8892 10.8299L38.3556 12.8799H37.7382L36.349 10.8299H36.2333V12.8412H35.7316V8.27716H36.4262ZM36.1947 10.4045H36.5034C37.1208 10.4045 37.5066 10.0951 37.5066 9.55355C37.5066 9.2828 37.4295 9.05073 37.1594 8.89602C36.9664 8.77998 36.7349 8.77998 36.5034 8.77998H36.1947V10.4045V10.4045Z" fill="#29EDFF"/>
<path d="M9.10658 20.0741C9.10658 20.4609 9.10658 20.8864 9.45386 21.1958C9.6468 21.3505 9.9555 21.4666 10.187 21.4666C10.4185 21.4666 10.7658 21.3505 10.9202 21.1958C11.2675 20.8864 11.2675 20.4609 11.2675 20.0741V17.2893H11.7691V20.2288C11.7691 20.6156 11.7305 20.9637 11.499 21.3118C11.2289 21.6986 10.7658 21.9307 10.1484 21.9307C9.56962 21.9307 9.10658 21.6986 8.79788 21.3118C8.56636 20.9637 8.52777 20.6156 8.52777 20.2288V17.2893H9.0294V20.0741H9.10658Z" fill="#29EDFF"/>
<path d="M19.9881 18.1788C19.911 18.0628 19.8338 17.9081 19.718 17.8307C19.6409 17.7534 19.4479 17.676 19.2164 17.676C18.7534 17.676 18.4447 17.9468 18.4447 18.3722C18.4447 18.5656 18.4832 18.643 18.599 18.759C18.7534 18.9137 18.9077 18.9524 19.0621 19.0298L19.4865 19.2232C19.7566 19.3392 19.9881 19.4552 20.1811 19.6486C20.4126 19.8807 20.5284 20.1514 20.5284 20.4609C20.5284 21.3118 19.911 21.8533 19.1006 21.8533C18.7919 21.8533 18.4061 21.7759 18.0974 21.4665C17.8658 21.2344 17.7501 20.925 17.6729 20.6543L18.1745 20.4996C18.2131 20.7316 18.3289 20.9637 18.4447 21.0797C18.6376 21.2731 18.8691 21.3505 19.1006 21.3505C19.718 21.3505 20.0267 20.8863 20.0267 20.4609C20.0267 20.2675 19.9496 20.0741 19.7952 19.9194C19.6794 19.8033 19.4865 19.726 19.255 19.6099L18.8305 19.4166C18.6376 19.3392 18.4447 19.2232 18.2131 19.0298C18.0202 18.8364 17.9044 18.643 17.9044 18.2949C17.9044 17.5987 18.4447 17.1345 19.1778 17.1345C19.4479 17.1345 19.6794 17.1732 19.911 17.3279C20.1039 17.4439 20.2583 17.6373 20.374 17.8307L19.9881 18.1788Z" fill="#29EDFF"/>
<path d="M29.442 16.7091L29.8279 16.9025L26.3936 23.0523L26.0078 22.859L29.442 16.7091Z" fill="#29EDFF"/>
<path d="M10.1099 26.2627C10.38 26.2627 10.8045 26.3014 11.1518 26.5334C11.3061 26.6495 11.5762 26.9202 11.5762 27.4617C11.5762 27.6938 11.5377 28.0806 11.1132 28.3513C11.7306 28.506 12.0007 29.0475 12.0007 29.5117C12.0007 29.9372 11.7692 30.3239 11.5377 30.5173C11.1904 30.7881 10.7659 30.8268 10.4572 30.8268H9.3382V26.2627H10.1099ZM9.80124 28.274H10.1871C10.4572 28.274 11.0746 28.2353 11.0746 27.5004C11.0746 26.7655 10.3415 26.7268 10.1871 26.7268H9.80124V28.274ZM9.80124 30.3626H10.38C10.6887 30.3626 10.9589 30.3239 11.1904 30.1692C11.3833 30.0532 11.4991 29.8211 11.4991 29.5504C11.4991 29.2023 11.3061 28.9702 11.1132 28.8928C10.9589 28.8155 10.6887 28.7381 10.3415 28.7381H9.83983V30.3626H9.80124Z" fill="#29EDFF"/>
<path d="M18.0974 30.2466C17.7887 29.8211 17.6344 29.2023 17.6344 28.5834C17.6344 27.9259 17.7887 27.3457 18.0974 26.9202C18.4447 26.4174 18.9078 26.224 19.2551 26.224C19.6023 26.224 20.0654 26.4174 20.4127 26.9202C20.7214 27.3457 20.8757 27.9646 20.8757 28.5834C20.8757 29.2409 20.7214 29.8211 20.4127 30.2466C20.0654 30.7494 19.6023 30.9428 19.2551 30.9428C18.9078 30.9428 18.4447 30.7494 18.0974 30.2466ZM18.4833 27.1523C18.2518 27.5391 18.136 28.0806 18.136 28.5447C18.136 29.0089 18.2132 29.5504 18.4833 29.9372C18.7148 30.3239 19.0235 30.44 19.2551 30.44C19.4866 30.44 19.7953 30.3239 20.0268 29.9372C20.2583 29.5504 20.3741 29.0089 20.3741 28.5447C20.3741 28.0806 20.2969 27.5391 20.0268 27.1523C19.7953 26.7655 19.4866 26.6495 19.2551 26.6495C19.0235 26.6495 18.7148 26.7655 18.4833 27.1523Z" fill="#29EDFF"/>
<path d="M26.8952 30.2466C26.5865 29.8211 26.4322 29.2023 26.4322 28.5834C26.4322 27.9259 26.5865 27.3457 26.8952 26.9202C27.2425 26.4174 27.7056 26.224 28.0528 26.224C28.4001 26.224 28.8632 26.4174 29.2105 26.9202C29.5192 27.3457 29.6735 27.9646 29.6735 28.5834C29.6735 29.2409 29.5192 29.8211 29.2105 30.2466C28.8632 30.7494 28.4001 30.9428 28.0528 30.9428C27.7056 30.9428 27.2425 30.7494 26.8952 30.2466ZM27.2811 27.1523C27.0496 27.5391 26.9338 28.0806 26.9338 28.5447C26.9338 29.0089 27.011 29.5504 27.2811 29.9372C27.5126 30.3239 27.8213 30.44 28.0528 30.44C28.2844 30.44 28.5931 30.3239 28.8246 29.9372C29.0561 29.5504 29.1719 29.0089 29.1719 28.5447C29.1719 28.0806 29.0947 27.5391 28.8246 27.1523C28.5931 26.7655 28.2844 26.6495 28.0528 26.6495C27.8213 26.6495 27.5126 26.7655 27.2811 27.1523Z" fill="#29EDFF"/>
<path d="M37.198 26.7655V30.8654H36.6964V26.7655H35.5773V26.3014H38.317V26.7655H37.198Z" fill="#29EDFF"/>
<path d="M12.1164 36.2804C11.9621 36.1257 11.7691 35.971 11.5376 35.855C11.3061 35.7389 11.036 35.6616 10.7659 35.6616C9.724 35.6616 8.95226 36.5125 8.95226 37.5568C8.95226 38.7945 9.95552 39.4134 10.8044 39.4134C11.1131 39.4134 11.4218 39.336 11.6534 39.22C11.9235 39.104 12.1164 38.9106 12.1936 38.8332V39.4521C11.6919 39.8002 11.1517 39.9162 10.8044 39.9162C9.45389 39.9162 8.45062 38.8719 8.45062 37.5568C8.45062 36.2031 9.45389 35.1974 10.843 35.1974C11.1131 35.1974 11.6534 35.2361 12.1936 35.6616V36.2804H12.1164Z" fill="#29EDFF"/>
<path d="M20.2197 38.5624H18.2903L17.7501 39.8388H17.1713L19.255 35.0427L21.3001 39.8388H20.7213L20.2197 38.5624ZM20.0267 38.0596L19.255 36.2417L18.4832 38.0596H20.0267Z" fill="#29EDFF"/>
<path d="M25.7376 39.8388L26.5094 35.004L28.2458 38.8718L30.0208 35.004L30.7154 39.8388H30.2137L29.7893 36.6672L28.2458 40.0322L26.7023 36.6672L26.2392 39.8388H25.7376Z" fill="#29EDFF"/>
<path d="M36.735 35.2748C37.1981 35.2748 37.5839 35.3135 37.8926 35.5842C38.2399 35.855 38.3171 36.2804 38.3171 36.5512C38.3171 37.2087 37.9312 37.8276 36.8894 37.8276H36.4263V39.8002H35.8861V35.2748H36.735ZM36.4263 37.3634H36.8508C37.4682 37.3634 37.8155 37.054 37.8155 36.5512C37.8155 35.8163 37.1209 35.7389 36.8122 35.7389H36.4263V37.3634Z" fill="#29EDFF"/>
<path fill-rule="evenodd" clip-rule="evenodd" d="M75.0411 34.8549L69.0136 24.3724H65.3447V34.8549H62.724V11.9243H65.3447V21.9483H68.817L74.3859 11.9243H77.5307L71.1756 23.0948L78.2186 34.8549H75.0411ZM72.349 23.0817L80.0068 35.8683H74.4548L68.4273 25.3858H66.3581V35.8683H61.7106V10.9109H66.3581V20.9349H68.2207L73.7896 10.9109H79.2732L72.349 23.0817ZM97.8585 35.8683H93.2111V20.2942L87.0174 35.8683H81.4837V10.9109H86.1312V26.4851L92.3248 10.9109H97.8585V35.8683ZM85.1177 31.7757V11.9243H82.4971V34.8549H86.3298L94.2245 15.0036V34.8549H96.8451V11.9243H93.0124L85.1177 31.7757ZM118.287 10.9109V35.8683H113.639V25.3858H106.952V35.8683H102.305V10.9109H106.952V20.9349H113.639V10.9109H118.287ZM114.653 21.9483H105.939V11.9243H103.318V34.8549H105.939V24.3724H114.653V34.8549H117.273V11.9243H114.653V21.9483ZM138.867 30.2966L138.865 30.3007C138.07 32.1957 136.985 33.6876 135.572 34.6968C134.179 35.6916 132.62 36.1959 130.921 36.1959C129.222 36.1959 127.662 35.6916 126.27 34.6968C124.857 33.6876 123.771 32.1957 122.976 30.3007L122.974 30.2966C122.167 28.3504 121.783 26.0378 121.783 23.3896C121.783 20.743 122.167 18.4399 122.975 16.5134C123.769 14.5984 124.854 13.0935 126.27 12.0824C127.662 11.0877 129.222 10.5833 130.921 10.5833C132.62 10.5833 134.179 11.0877 135.572 12.0824C136.987 13.0935 138.072 14.5984 138.866 16.5133C139.674 18.4399 140.058 20.743 140.058 23.3896C140.058 26.0378 139.674 28.3504 138.867 30.2966ZM137.931 16.9035C137.188 15.1128 136.206 13.7806 134.983 12.907C133.76 12.0335 132.406 11.5967 130.921 11.5967C129.436 11.5967 128.082 12.0335 126.859 12.907C125.636 13.7806 124.653 15.1128 123.91 16.9035C123.168 18.6725 122.797 20.8345 122.797 23.3896C122.797 25.9447 123.168 28.1177 123.91 29.9085C124.653 31.6774 125.636 32.9986 126.859 33.8722C128.082 34.7457 129.436 35.1825 130.921 35.1825C132.406 35.1825 133.76 34.7457 134.983 33.8722C136.206 32.9986 137.188 31.6774 137.931 29.9085C138.673 28.1177 139.045 25.9447 139.045 23.3896C139.045 20.8345 138.673 18.6725 137.931 16.9035ZM132.974 15.8992L132.964 15.8898C132.293 15.2899 131.621 15.0342 130.921 15.0342C130.138 15.0342 129.436 15.3023 128.779 15.8898L128.774 15.8948L128.768 15.8998C128.115 16.4672 127.541 17.3612 127.098 18.6698L127.096 18.6743C126.662 19.9375 126.431 21.5015 126.431 23.3896C126.431 25.2499 126.672 26.8117 127.126 28.0963C127.588 29.4028 128.172 30.3165 128.834 30.9129C129.526 31.4945 130.214 31.745 130.921 31.745C131.71 31.745 132.414 31.4828 133.068 30.9171C133.73 30.322 134.304 29.4207 134.744 28.1398C135.18 26.8522 135.411 25.2758 135.411 23.3896C135.411 21.5294 135.17 19.9675 134.715 18.6829C134.253 17.3757 133.66 16.4792 132.985 15.9082L132.974 15.8992ZM135.703 28.4671C135.223 29.8648 134.568 30.9349 133.738 31.6774C132.908 32.3981 131.969 32.7584 130.921 32.7584C129.938 32.7584 129.021 32.3981 128.169 31.6774C127.339 30.9349 126.673 29.8539 126.171 28.4344C125.668 27.0148 125.417 25.3333 125.417 23.3896C125.417 21.4241 125.658 19.7426 126.138 18.3449C126.618 16.9254 127.274 15.8553 128.103 15.1346C128.933 14.3921 129.872 14.0208 130.921 14.0208C131.903 14.0208 132.81 14.3921 133.64 15.1346C134.491 15.8553 135.168 16.9254 135.671 18.3449C136.173 19.7644 136.424 21.446 136.424 23.3896C136.424 25.3551 136.184 27.0476 135.703 28.4671Z" fill="#29EDFF"/>
</svg>
